<svg width="14" height="19" viewBox="0 0 14 19" fill="none" xmlns="http://www.w3.org/2000/svg">
<path d="M11.125 4.09804H3V5.46405H11.125V4.09804Z" fill="#AEAEAE"/>
<path d="M3 8.56863H11.125V9.81046H3V8.56863Z" fill="#AEAEAE"/>
<path d="M8.875 12.915H3V14.281H8.875V12.915Z" fill="#AEAEAE"/>
<path fill-rule="evenodd" clip-rule="evenodd" d="M0 2.23529C0 1.00078 1.00736 0 2.25 0H11.75C12.9926 0 14 1.00078 14 2.23529V16.7647C14 17.9992 12.9926 19 11.75 19H2.25C1.00736 19 0 17.9992 0 16.7647V2.23529ZM2.25 1.24183H11.75C12.3023 1.24183 12.75 1.68662 12.75 2.23529V16.7647C12.75 17.3134 12.3023 17.7582 11.75 17.7582H2.25C1.69772 17.7582 1.25 17.3134 1.25 16.7647V2.23529C1.25 1.68662 1.69772 1.24183 2.25 1.24183Z" fill="#AEAEAE"/>
</svg>
