<svg width="18" height="19" viewBox="0 0 18 19" fill="none" xmlns="http://www.w3.org/2000/svg">
<path fill-rule="evenodd" clip-rule="evenodd" d="M11.825 13.8904C10.6027 14.7715 9.11045 15.2893 7.49954 15.2893C3.35766 15.2893 0 11.8667 0 7.64464C0 3.42262 3.35766 0 7.49954 0C11.6414 0 14.9991 3.42262 14.9991 7.64464C14.9991 9.49084 14.357 11.1842 13.2882 12.5053C13.3589 12.551 13.4254 12.6063 13.4856 12.6712L17.717 17.2238C18.1092 17.6457 18.0916 18.3118 17.6776 18.7116C17.2637 19.1113 16.6103 19.0933 16.2181 18.6714L11.9867 14.1188C11.9215 14.0486 11.8676 13.9717 11.825 13.8904ZM13.0379 7.64464C13.0379 10.7626 10.5583 13.2902 7.49954 13.2902C4.44076 13.2902 1.96114 10.7626 1.96114 7.64464C1.96114 4.52668 4.44076 1.99908 7.49954 1.99908C10.5583 1.99908 13.0379 4.52668 13.0379 7.64464Z" fill="#AEAEAE"/>
</svg>
