<svg width="22" height="22" viewBox="0 0 22 22" fill="none" xmlns="http://www.w3.org/2000/svg">
<path fill-rule="evenodd" clip-rule="evenodd" d="M7.04772 11.6651C5.53349 10.4706 4.56046 8.6125 4.56046 6.5256C4.56046 2.92161 7.46245 0 11.0422 0C14.622 0 17.524 2.92161 17.524 6.5256C17.524 8.62537 16.5389 10.4935 15.0086 11.6871C15.0758 11.7136 15.1428 11.7408 15.2095 11.7686C16.5441 12.3251 17.7567 13.1409 18.7782 14.1692C19.7996 15.1976 20.6099 16.4184 21.1627 17.762C21.4436 18.4448 21.6552 19.1525 21.7955 19.8744C21.9312 20.573 22 21.2848 22 22H0C0 21.2848 0.0688186 20.573 0.204523 19.8744C0.34475 19.1526 0.556395 18.4448 0.837325 17.762C1.39013 16.4184 2.20038 15.1976 3.22182 14.1692C4.24327 13.1409 5.4559 12.3251 6.79048 11.7686C6.87584 11.733 6.9616 11.6985 7.04772 11.6651ZM10.1312 10.9602C10.4198 10.9372 10.7096 10.9256 11 10.9256C11.3106 10.9256 11.6205 10.9388 11.9289 10.9652C13.988 10.5506 15.5393 8.72052 15.5393 6.5256C15.5393 4.02511 13.5259 1.99807 11.0422 1.99807C8.55853 1.99807 6.54511 4.02511 6.54511 6.5256C6.54511 8.71188 8.0843 10.5362 10.1312 10.9602ZM19.2121 18.5754C19.3859 18.9979 19.5269 19.4322 19.6343 19.8744H2.36572C2.47311 19.4322 2.61411 18.9979 2.78793 18.5754C3.23463 17.4897 3.88937 16.5032 4.71476 15.6722C5.54015 14.8413 6.52003 14.1821 7.59845 13.7324C8.67688 13.2827 9.83272 13.0512 11 13.0512C12.1673 13.0512 13.3231 13.2827 14.4015 13.7324C15.48 14.1821 16.4599 14.8413 17.2852 15.6722C18.1106 16.5032 18.7654 17.4897 19.2121 18.5754Z" fill="#AEAEAE"/>
</svg>
